<svg width="110" height="23" viewBox="0 0 110 23" fill="none" xmlns="http://www.w3.org/2000/svg">
<path d="M101.324 12.384C101.324 10.176 100.524 9.12004 98.2844 9.12004V12.992H93.5164C94.5084 9.60004 98.6364 7.04004 102.284 7.04004C105.068 7.04004 106.764 8.92804 106.764 11.872V17.632C106.764 18.56 107.276 19.104 107.98 19.104C108.46 19.104 108.972 18.848 109.292 18.336C109.292 20.672 107.436 22.336 105.164 22.336C103.308 22.336 101.996 21.248 101.356 19.808H101.068C100.3 20.992 99.0204 22.304 97.0044 22.304C95.0844 22.304 93.4844 21.024 93.4844 19.168C93.4844 16.928 95.4044 15.84 98.0284 14.784L101.324 13.44V12.384ZM101.324 14.816L100.684 15.104C99.3084 15.712 98.5404 16.352 98.5404 17.6C98.5404 18.784 99.3404 19.36 100.268 19.36C100.62 19.36 101.036 19.296 101.324 19.104V14.816Z" fill="black"/>
<path d="M80.3076 8.41603L87.5716 3.39203V7.80803H92.7556L91.5716 9.79203H87.5716V16.384C87.5716 18.048 88.7556 18.816 90.0356 18.816C91.0916 18.816 92.0516 18.4 92.8196 17.504C92.1156 20.64 89.9716 22.4 87.0276 22.4C84.3716 22.4 82.1636 20.704 82.1636 17.664L82.3556 10.496L80.3076 8.41603Z" fill="black"/>
<path d="M76.5121 12.96L74.0481 8.28804C72.2561 8.64004 70.8481 10.688 70.8481 13.152C70.8481 16.128 72.8001 18.208 75.5201 18.208C77.2161 18.208 78.8481 17.504 79.8401 16.16C79.3601 19.936 76.8641 22.4 73.3441 22.4C69.3121 22.4 66.0801 19.328 66.0801 14.976C66.0801 10.848 69.8881 7.04004 74.4641 7.04004C77.3121 7.04004 79.3281 8.44804 79.3281 10.336C79.3281 11.776 78.0161 12.96 76.5121 12.96Z" fill="black"/>
<path d="M49.096 0H55.368L63.816 20.288H66.152V22.08H53.704V20.288H57.64L55.176 14.432H47.816L45.384 20.288H49.32V22.08H41V20.288H43.336L50.504 3.328L49.096 0ZM48.552 12.64H54.408L51.464 5.632L48.552 12.64Z" fill="black"/>
<path d="M19.4302 0H23.2564C24.2194 0 25 0.780632 25 1.74359V20.2564C25 21.2194 24.2194 22 23.2564 22H5.66667C2.53705 22 -1.90735e-06 19.4629 -1.90735e-06 16.3333V5.66667C-1.90735e-06 2.53705 2.53706 0 5.66667 0H12.6496V7.47083C12.6496 7.69383 12.8904 7.83373 13.0841 7.72329L15.896 6.1202C15.9852 6.06934 16.0946 6.06934 16.1838 6.1202L18.9957 7.72329C19.1894 7.83373 19.4302 7.69383 19.4302 7.47083V0Z" fill="#266833"/>
</svg>
